<?xml version="1.0" encoding="UTF-8" ?>
<svg version="1.1" width="32" height="32" xmlns="http://www.w3.org/2000/svg" shape-rendering="crispEdges">
<rect x="5" y="2" width="1" height="1" fill="#5F9EA0" />
<rect x="6" y="2" width="1" height="1" fill="#5F9EA0" />
<rect x="7" y="2" width="1" height="1" fill="#5F9EA0" />
<rect x="8" y="2" width="1" height="1" fill="#5F9EA0" />
<rect x="9" y="2" width="1" height="1" fill="#60A0A2" />
<rect x="10" y="2" width="1" height="1" fill="#62A1A3" />
<rect x="11" y="2" width="1" height="1" fill="#63A3A5" />
<rect x="12" y="2" width="1" height="1" fill="#64A4A6" />
<rect x="13" y="2" width="1" height="1" fill="#65A5A7" />
<rect x="14" y="2" width="1" height="1" fill="#65A6A8" />
<rect x="15" y="2" width="1" height="1" fill="#66A6A8" />
<rect x="16" y="2" width="1" height="1" fill="#66A6A8" />
<rect x="17" y="2" width="1" height="1" fill="#65A6A8" />
<rect x="18" y="2" width="1" height="1" fill="#65A5A7" />
<rect x="19" y="2" width="1" height="1" fill="#64A4A6" />
<rect x="20" y="2" width="1" height="1" fill="#63A3A5" />
<rect x="21" y="2" width="1" height="1" fill="#62A1A3" />
<rect x="22" y="2" width="1" height="1" fill="#60A0A2" />
<rect x="23" y="2" width="1" height="1" fill="#5F9EA0" />
<rect x="24" y="2" width="1" height="1" fill="#5F9EA0" />
<rect x="25" y="2" width="1" height="1" fill="#5F9EA0" />
<rect x="26" y="2" width="1" height="1" fill="#5F9EA0" />
<rect x="4" y="3" width="1" height="1" fill="#5F9EA0" />
<rect x="5" y="3" width="1" height="1" fill="#5F9EA0" />
<rect x="6" y="3" width="1" height="1" fill="#5F9EA0" />
<rect x="7" y="3" width="1" height="1" fill="#609FA1" />
<rect x="8" y="3" width="1" height="1" fill="#62A1A3" />
<rect x="9" y="3" width="1" height="1" fill="#64A3A6" />
<rect x="10" y="3" width="1" height="1" fill="#65A5A7" />
<rect x="11" y="3" width="1" height="1" fill="#67A7A9" />
<rect x="12" y="3" width="1" height="1" fill="#68A8AA" />
<rect x="13" y="3" width="1" height="1" fill="#68A9AB" />
<rect x="14" y="3" width="1" height="1" fill="#69AAAC" />
<rect x="15" y="3" width="1" height="1" fill="#69AAAC" />
<rect x="16" y="3" width="1" height="1" fill="#69AAAC" />
<rect x="17" y="3" width="1" height="1" fill="#69AAAC" />
<rect x="18" y="3" width="1" height="1" fill="#68A9AB" />
<rect x="19" y="3" width="1" height="1" fill="#68A8AA" />
<rect x="20" y="3" width="1" height="1" fill="#67A7A9" />
<rect x="21" y="3" width="1" height="1" fill="#65A5A7" />
<rect x="22" y="3" width="1" height="1" fill="#64A3A6" />
<rect x="23" y="3" width="1" height="1" fill="#62A1A3" />
<rect x="24" y="3" width="1" height="1" fill="#609FA1" />
<rect x="25" y="3" width="1" height="1" fill="#5F9EA0" />
<rect x="26" y="3" width="1" height="1" fill="#5F9EA0" />
<rect x="27" y="3" width="1" height="1" fill="#5F9EA0" />
<rect x="3" y="4" width="1" height="1" fill="#5F9EA0" />
<rect x="4" y="4" width="1" height="1" fill="#5F9EA0" />
<rect x="5" y="4" width="1" height="1" fill="#5F9EA0" />
<rect x="6" y="4" width="1" height="1" fill="#61A0A2" />
<rect x="7" y="4" width="1" height="1" fill="#63A3A5" />
<rect x="8" y="4" width="1" height="1" fill="#65A5A7" />
<rect x="9" y="4" width="1" height="1" fill="#67A7A9" />
<rect x="10" y="4" width="1" height="1" fill="#68A9AB" />
<rect x="11" y="4" width="1" height="1" fill="#6AABAD" />
<rect x="12" y="4" width="1" height="1" fill="#6BACAF" />
<rect x="13" y="4" width="1" height="1" fill="#6CADB0" />
<rect x="14" y="4" width="1" height="1" fill="#6DAEB0" />
<rect x="15" y="4" width="1" height="1" fill="#6DAEB1" />
<rect x="16" y="4" width="1" height="1" fill="#6DAEB1" />
<rect x="17" y="4" width="1" height="1" fill="#6DAEB0" />
<rect x="18" y="4" width="1" height="1" fill="#6CADB0" />
<rect x="19" y="4" width="1" height="1" fill="#6BACAF" />
<rect x="20" y="4" width="1" height="1" fill="#6AABAD" />
<rect x="21" y="4" width="1" height="1" fill="#68A9AB" />
<rect x="22" y="4" width="1" height="1" fill="#67A7A9" />
<rect x="23" y="4" width="1" height="1" fill="#65A5A7" />
<rect x="24" y="4" width="1" height="1" fill="#63A3A5" />
<rect x="25" y="4" width="1" height="1" fill="#61A0A2" />
<rect x="26" y="4" width="1" height="1" fill="#5F9EA0" />
<rect x="27" y="4" width="1" height="1" fill="#5F9EA0" />
<rect x="28" y="4" width="1" height="1" fill="#5F9EA0" />
<rect x="2" y="5" width="1" height="1" fill="#5F9EA0" />
<rect x="3" y="5" width="1" height="1" fill="#5F9EA0" />
<rect x="4" y="5" width="1" height="1" fill="#5F9EA0" />
<rect x="5" y="5" width="1" height="1" fill="#61A0A2" />
<rect x="6" y="5" width="1" height="1" fill="#63A3A5" />
<rect x="7" y="5" width="1" height="1" fill="#66A6A8" />
<rect x="8" y="5" width="1" height="1" fill="#68A8AB" />
<rect x="9" y="5" width="1" height="1" fill="#6AABAD" />
<rect x="10" y="5" width="1" height="1" fill="#6CADAF" />
<rect x="11" y="5" width="1" height="1" fill="#6DAFB1" />
<rect x="12" y="5" width="1" height="1" fill="#6FB0B3" />
<rect x="13" y="5" width="1" height="1" fill="#70B1B4" />
<rect x="14" y="5" width="1" height="1" fill="#70B2B5" />
<rect x="15" y="5" width="1" height="1" fill="#71B2B5" />
<rect x="16" y="5" width="1" height="1" fill="#71B2B5" />
<rect x="17" y="5" width="1" height="1" fill="#70B2B5" />
<rect x="18" y="5" width="1" height="1" fill="#70B1B4" />
<rect x="19" y="5" width="1" height="1" fill="#6FB0B3" />
<rect x="20" y="5" width="1" height="1" fill="#6DAFB1" />
<rect x="21" y="5" width="1" height="1" fill="#6CADAF" />
<rect x="22" y="5" width="1" height="1" fill="#6AABAD" />
<rect x="23" y="5" width="1" height="1" fill="#68A8AB" />
<rect x="24" y="5" width="1" height="1" fill="#66A6A8" />
<rect x="25" y="5" width="1" height="1" fill="#63A3A5" />
<rect x="26" y="5" width="1" height="1" fill="#61A0A2" />
<rect x="27" y="5" width="1" height="1" fill="#5F9EA0" />
<rect x="28" y="5" width="1" height="1" fill="#5F9EA0" />
<rect x="29" y="5" width="1" height="1" fill="#5F9EA0" />
<rect x="2" y="6" width="1" height="1" fill="#5F9EA0" />
<rect x="3" y="6" width="1" height="1" fill="#5F9EA0" />
<rect x="4" y="6" width="1" height="1" fill="#61A0A2" />
<rect x="5" y="6" width="1" height="1" fill="#63A3A5" />
<rect x="6" y="6" width="1" height="1" fill="#66A6A8" />
<rect x="7" y="6" width="1" height="1" fill="#68A9AB" />
<rect x="8" y="6" width="1" height="1" fill="#6BACAE" />
<rect x="9" y="6" width="1" height="1" fill="#6DAEB1" />
<rect x="10" y="6" width="1" height="1" fill="#6FB0B3" />
<rect x="11" y="6" width="1" height="1" fill="#71B2B5" />
<rect x="12" y="6" width="1" height="1" fill="#72B4B7" />
<rect x="13" y="6" width="1" height="1" fill="#73B5B8" />
<rect x="14" y="6" width="1" height="1" fill="#74B6B9" />
<rect x="15" y="6" width="1" height="1" fill="#74B7B9" />
<rect x="16" y="6" width="1" height="1" fill="#74B7B9" />
<rect x="17" y="6" width="1" height="1" fill="#74B6B9" />
<rect x="18" y="6" width="1" height="1" fill="#73B5B8" />
<rect x="19" y="6" width="1" height="1" fill="#72B4B7" />
<rect x="20" y="6" width="1" height="1" fill="#71B2B5" />
<rect x="21" y="6" width="1" height="1" fill="#6FB0B3" />
<rect x="22" y="6" width="1" height="1" fill="#6DAEB1" />
<rect x="23" y="6" width="1" height="1" fill="#6BACAE" />
<rect x="24" y="6" width="1" height="1" fill="#68A9AB" />
<rect x="25" y="6" width="1" height="1" fill="#66A6A8" />
<rect x="26" y="6" width="1" height="1" fill="#63A3A5" />
<rect x="27" y="6" width="1" height="1" fill="#61A0A2" />
<rect x="28" y="6" width="1" height="1" fill="#5F9EA0" />
<rect x="29" y="6" width="1" height="1" fill="#5F9EA0" />
<rect x="2" y="7" width="1" height="1" fill="#5F9EA0" />
<rect x="3" y="7" width="1" height="1" fill="#609FA1" />
<rect x="4" y="7" width="1" height="1" fill="#63A3A5" />
<rect x="5" y="7" width="1" height="1" fill="#66A6A8" />
<rect x="6" y="7" width="1" height="1" fill="#68A9AB" />
<rect x="7" y="7" width="1" height="1" fill="#6BACAF" />
<rect x="8" y="7" width="1" height="1" fill="#6EAFB2" />
<rect x="9" y="7" width="1" height="1" fill="#70B2B4" />
<rect x="10" y="7" width="1" height="1" fill="#72B4B7" />
<rect x="11" y="7" width="1" height="1" fill="#74B6B9" />
<rect x="12" y="7" width="1" height="1" fill="#75B8BB" />
<rect x="13" y="7" width="1" height="1" fill="#76B9BC" />
<rect x="14" y="7" width="1" height="1" fill="#77BABD" />
<rect x="15" y="7" width="1" height="1" fill="#78BBBE" />
<rect x="16" y="7" width="1" height="1" fill="#78BBBE" />
<rect x="17" y="7" width="1" height="1" fill="#77BABD" />
<rect x="18" y="7" width="1" height="1" fill="#76B9BC" />
<rect x="19" y="7" width="1" height="1" fill="#75B8BB" />
<rect x="20" y="7" width="1" height="1" fill="#74B6B9" />
<rect x="21" y="7" width="1" height="1" fill="#72B4B7" />
<rect x="22" y="7" width="1" height="1" fill="#70B2B4" />
<rect x="23" y="7" width="1" height="1" fill="#6EAFB2" />
<rect x="24" y="7" width="1" height="1" fill="#6BACAF" />
<rect x="25" y="7" width="1" height="1" fill="#68A9AB" />
<rect x="26" y="7" width="1" height="1" fill="#66A6A8" />
<rect x="27" y="7" width="1" height="1" fill="#63A3A5" />
<rect x="28" y="7" width="1" height="1" fill="#609FA1" />
<rect x="29" y="7" width="1" height="1" fill="#5F9EA0" />
<rect x="2" y="8" width="1" height="1" fill="#5F9EA0" />
<rect x="3" y="8" width="1" height="1" fill="#62A1A3" />
<rect x="4" y="8" width="1" height="1" fill="#65A5A7" />
<rect x="5" y="8" width="1" height="1" fill="#68A8AB" />
<rect x="6" y="8" width="1" height="1" fill="#6BACAE" />
<rect x="7" y="8" width="1" height="1" fill="#6EAFB2" />
<rect x="8" y="8" width="1" height="1" fill="#70B2B5" />
<rect x="9" y="8" width="1" height="1" fill="#73B5B8" />
<rect x="10" y="8" width="1" height="1" fill="#75B7BA" />
<rect x="11" y="8" width="1" height="1" fill="#77BABD" />
<rect x="12" y="8" width="1" height="1" fill="#79BCBF" />
<rect x="13" y="8" width="1" height="1" fill="#7ABDC0" />
<rect x="14" y="8" width="1" height="1" fill="#7BBEC1" />
<rect x="15" y="8" width="1" height="1" fill="#7BBFC2" />
<rect x="16" y="8" width="1" height="1" fill="#7BBFC2" />
<rect x="17" y="8" width="1" height="1" fill="#7BBEC1" />
<rect x="18" y="8" width="1" height="1" fill="#7ABDC0" />
<rect x="19" y="8" width="1" height="1" fill="#79BCBF" />
<rect x="20" y="8" width="1" height="1" fill="#77BABD" />
<rect x="21" y="8" width="1" height="1" fill="#75B7BA" />
<rect x="22" y="8" width="1" height="1" fill="#73B5B8" />
<rect x="23" y="8" width="1" height="1" fill="#70B2B5" />
<rect x="24" y="8" width="1" height="1" fill="#6EAFB2" />
<rect x="25" y="8" width="1" height="1" fill="#6BACAE" />
<rect x="26" y="8" width="1" height="1" fill="#68A8AB" />
<rect x="27" y="8" width="1" height="1" fill="#65A5A7" />
<rect x="28" y="8" width="1" height="1" fill="#62A1A3" />
<rect x="29" y="8" width="1" height="1" fill="#5F9EA0" />
<rect x="2" y="9" width="1" height="1" fill="#60A0A2" />
<rect x="3" y="9" width="1" height="1" fill="#64A3A6" />
<rect x="4" y="9" width="1" height="1" fill="#67A7A9" />
<rect x="5" y="9" width="1" height="1" fill="#6AABAD" />
<rect x="6" y="9" width="1" height="1" fill="#6DAEB1" />
<rect x="7" y="9" width="1" height="1" fill="#70B2B4" />
<rect x="8" y="9" width="1" height="1" fill="#73B5B8" />
<rect x="9" y="9" width="1" height="1" fill="#75B8BB" />
<rect x="10" y="9" width="1" height="1" fill="#78BBBE" />
<rect x="11" y="9" width="1" height="1" fill="#7ABDC0" />
<rect x="12" y="9" width="1" height="1" fill="#7CC0C3" />
<rect x="13" y="9" width="1" height="1" fill="#7DC1C4" />
<rect x="14" y="9" width="1" height="1" fill="#7EC3C6" />
<rect x="15" y="9" width="1" height="1" fill="#7FC3C6" />
<rect x="16" y="9" width="1" height="1" fill="#7FC3C6" />
<rect x="17" y="9" width="1" height="1" fill="#7EC3C6" />
<rect x="18" y="9" width="1" height="1" fill="#7DC1C4" />
<rect x="19" y="9" width="1" height="1" fill="#7CC0C3" />
<rect x="20" y="9" width="1" height="1" fill="#7ABDC0" />
<rect x="21" y="9" width="1" height="1" fill="#78BBBE" />
<rect x="22" y="9" width="1" height="1" fill="#75B8BB" />
<rect x="23" y="9" width="1" height="1" fill="#73B5B8" />
<rect x="24" y="9" width="1" height="1" fill="#70B2B4" />
<rect x="25" y="9" width="1" height="1" fill="#6DAEB1" />
<rect x="26" y="9" width="1" height="1" fill="#6AABAD" />
<rect x="27" y="9" width="1" height="1" fill="#67A7A9" />
<rect x="28" y="9" width="1" height="1" fill="#64A3A6" />
<rect x="29" y="9" width="1" height="1" fill="#60A0A2" />
<rect x="2" y="10" width="1" height="1" fill="#62A1A3" />
<rect x="3" y="10" width="1" height="1" fill="#65A5A7" />
<rect x="4" y="10" width="1" height="1" fill="#68A9AB" />
<rect x="5" y="10" width="1" height="1" fill="#6CADAF" />
<rect x="6" y="10" width="1" height="1" fill="#6FB0B3" />
<rect x="7" y="10" width="1" height="1" fill="#72B4B7" />
<rect x="8" y="10" width="1" height="1" fill="#75B7BA" />
<rect x="9" y="10" width="1" height="1" fill="#78BBBE" />
<rect x="10" y="10" width="1" height="1" fill="#7ABEC1" />
<rect x="11" y="10" width="1" height="1" fill="#7DC1C4" />
<rect x="12" y="10" width="1" height="1" fill="#7FC3C6" />
<rect x="13" y="10" width="1" height="1" fill="#81C5C8" />
<rect x="14" y="10" width="1" height="1" fill="#82C7CA" />
<rect x="15" y="10" width="1" height="1" fill="#83C7CB" />
<rect x="16" y="10" width="1" height="1" fill="#83C7CB" />
<rect x="17" y="10" width="1" height="1" fill="#82C7CA" />
<rect x="18" y="10" width="1" height="1" fill="#81C5C8" />
<rect x="19" y="10" width="1" height="1" fill="#7FC3C6" />
<rect x="20" y="10" width="1" height="1" fill="#7DC1C4" />
<rect x="21" y="10" width="1" height="1" fill="#7ABEC1" />
<rect x="22" y="10" width="1" height="1" fill="#78BBBE" />
<rect x="23" y="10" width="1" height="1" fill="#75B7BA" />
<rect x="24" y="10" width="1" height="1" fill="#72B4B7" />
<rect x="25" y="10" width="1" height="1" fill="#6FB0B3" />
<rect x="26" y="10" width="1" height="1" fill="#6CADAF" />
<rect x="27" y="10" width="1" height="1" fill="#68A9AB" />
<rect x="28" y="10" width="1" height="1" fill="#65A5A7" />
<rect x="29" y="10" width="1" height="1" fill="#62A1A3" />
<rect x="2" y="11" width="1" height="1" fill="#63A3A5" />
<rect x="3" y="11" width="1" height="1" fill="#67A7A9" />
<rect x="4" y="11" width="1" height="1" fill="#6AABAD" />
<rect x="5" y="11" width="1" height="1" fill="#6DAFB1" />
<rect x="6" y="11" width="1" height="1" fill="#71B2B5" />
<rect x="7" y="11" width="1" height="1" fill="#74B6B9" />
<rect x="8" y="11" width="1" height="1" fill="#77BABD" />
<rect x="9" y="11" width="1" height="1" fill="#7ABDC0" />
<rect x="10" y="11" width="1" height="1" fill="#7DC1C4" />
<rect x="11" y="11" width="1" height="1" fill="#80C4C7" />
<rect x="12" y="11" width="1" height="1" fill="#82C7CA" />
<rect x="13" y="11" width="1" height="1" fill="#84C9CC" />
<rect x="14" y="11" width="1" height="1" fill="#85CBCE" />
<rect x="15" y="11" width="1" height="1" fill="#86CCCF" />
<rect x="16" y="11" width="1" height="1" fill="#86CCCF" />
<rect x="17" y="11" width="1" height="1" fill="#85CBCE" />
<rect x="18" y="11" width="1" height="1" fill="#84C9CC" />
<rect x="19" y="11" width="1" height="1" fill="#82C7CA" />
<rect x="20" y="11" width="1" height="1" fill="#80C4C7" />
<rect x="21" y="11" width="1" height="1" fill="#7DC1C4" />
<rect x="22" y="11" width="1" height="1" fill="#7ABDC0" />
<rect x="23" y="11" width="1" height="1" fill="#77BABD" />
<rect x="24" y="11" width="1" height="1" fill="#74B6B9" />
<rect x="25" y="11" width="1" height="1" fill="#71B2B5" />
<rect x="26" y="11" width="1" height="1" fill="#6DAFB1" />
<rect x="27" y="11" width="1" height="1" fill="#6AABAD" />
<rect x="28" y="11" width="1" height="1" fill="#67A7A9" />
<rect x="29" y="11" width="1" height="1" fill="#63A3A5" />
<rect x="2" y="12" width="1" height="1" fill="#64A4A6" />
<rect x="3" y="12" width="1" height="1" fill="#68A8AA" />
<rect x="4" y="12" width="1" height="1" fill="#6BACAF" />
<rect x="5" y="12" width="1" height="1" fill="#6FB0B3" />
<rect x="6" y="12" width="1" height="1" fill="#72B4B7" />
<rect x="7" y="12" width="1" height="1" fill="#75B8BB" />
<rect x="8" y="12" width="1" height="1" fill="#79BCBF" />
<rect x="9" y="12" width="1" height="1" fill="#7CC0C3" />
<rect x="10" y="12" width="1" height="1" fill="#7FC3C6" />
<rect x="11" y="12" width="1" height="1" fill="#82C7CA" />
<rect x="12" y="12" width="1" height="1" fill="#85CACD" />
<rect x="13" y="12" width="1" height="1" fill="#87CCD0" />
<rect x="14" y="12" width="1" height="1" fill="#89CFD2" />
<rect x="15" y="12" width="1" height="1" fill="#8AD0D3" />
<rect x="16" y="12" width="1" height="1" fill="#8AD0D3" />
<rect x="17" y="12" width="1" height="1" fill="#89CFD2" />
<rect x="18" y="12" width="1" height="1" fill="#87CCD0" />
<rect x="19" y="12" width="1" height="1" fill="#85CACD" />
<rect x="20" y="12" width="1" height="1" fill="#82C7CA" />
<rect x="21" y="12" width="1" height="1" fill="#7FC3C6" />
<rect x="22" y="12" width="1" height="1" fill="#7CC0C3" />
<rect x="23" y="12" width="1" height="1" fill="#79BCBF" />
<rect x="24" y="12" width="1" height="1" fill="#75B8BB" />
<rect x="25" y="12" width="1" height="1" fill="#72B4B7" />
<rect x="26" y="12" width="1" height="1" fill="#6FB0B3" />
<rect x="27" y="12" width="1" height="1" fill="#6BACAF" />
<rect x="28" y="12" width="1" height="1" fill="#68A8AA" />
<rect x="29" y="12" width="1" height="1" fill="#64A4A6" />
<rect x="2" y="13" width="1" height="1" fill="#65A5A7" />
<rect x="3" y="13" width="1" height="1" fill="#68A9AB" />
<rect x="4" y="13" width="1" height="1" fill="#6CADB0" />
<rect x="5" y="13" width="1" height="1" fill="#70B1B4" />
<rect x="6" y="13" width="1" height="1" fill="#73B5B8" />
<rect x="7" y="13" width="1" height="1" fill="#76B9BC" />
<rect x="8" y="13" width="1" height="1" fill="#7ABDC0" />
<rect x="9" y="13" width="1" height="1" fill="#7DC1C4" />
<rect x="10" y="13" width="1" height="1" fill="#81C5C8" />
<rect x="11" y="13" width="1" height="1" fill="#84C9CC" />
<rect x="12" y="13" width="1" height="1" fill="#87CCD0" />
<rect x="13" y="13" width="1" height="1" fill="#8AD0D3" />
<rect x="14" y="13" width="1" height="1" fill="#8CD2D6" />
<rect x="15" y="13" width="1" height="1" fill="#8DD4D7" />
<rect x="16" y="13" width="1" height="1" fill="#8DD4D7" />
<rect x="17" y="13" width="1" height="1" fill="#8CD2D6" />
<rect x="18" y="13" width="1" height="1" fill="#8AD0D3" />
<rect x="19" y="13" width="1" height="1" fill="#87CCD0" />
<rect x="20" y="13" width="1" height="1" fill="#84C9CC" />
<rect x="21" y="13" width="1" height="1" fill="#81C5C8" />
<rect x="22" y="13" width="1" height="1" fill="#7DC1C4" />
<rect x="23" y="13" width="1" height="1" fill="#7ABDC0" />
<rect x="24" y="13" width="1" height="1" fill="#76B9BC" />
<rect x="25" y="13" width="1" height="1" fill="#73B5B8" />
<rect x="26" y="13" width="1" height="1" fill="#70B1B4" />
<rect x="27" y="13" width="1" height="1" fill="#6CADB0" />
<rect x="28" y="13" width="1" height="1" fill="#68A9AB" />
<rect x="29" y="13" width="1" height="1" fill="#65A5A7" />
<rect x="2" y="14" width="1" height="1" fill="#65A6A8" />
<rect x="3" y="14" width="1" height="1" fill="#69AAAC" />
<rect x="4" y="14" width="1" height="1" fill="#6DAEB0" />
<rect x="5" y="14" width="1" height="1" fill="#70B2B5" />
<rect x="6" y="14" width="1" height="1" fill="#74B6B9" />
<rect x="7" y="14" width="1" height="1" fill="#77BABD" />
<rect x="8" y="14" width="1" height="1" fill="#7BBEC1" />
<rect x="9" y="14" width="1" height="1" fill="#7EC3C6" />
<rect x="10" y="14" width="1" height="1" fill="#82C7CA" />
<rect x="11" y="14" width="1" height="1" fill="#85CBCE" />
<rect x="12" y="14" width="1" height="1" fill="#89CFD2" />
<rect x="13" y="14" width="1" height="1" fill="#8CD2D6" />
<rect x="14" y="14" width="1" height="1" fill="#8FD6D9" />
<rect x="15" y="14" width="1" height="1" fill="#91D8DC" />
<rect x="16" y="14" width="1" height="1" fill="#91D8DC" />
<rect x="17" y="14" width="1" height="1" fill="#8FD6D9" />
<rect x="18" y="14" width="1" height="1" fill="#8CD2D6" />
<rect x="19" y="14" width="1" height="1" fill="#89CFD2" />
<rect x="20" y="14" width="1" height="1" fill="#85CBCE" />
<rect x="21" y="14" width="1" height="1" fill="#82C7CA" />
<rect x="22" y="14" width="1" height="1" fill="#7EC3C6" />
<rect x="23" y="14" width="1" height="1" fill="#7BBEC1" />
<rect x="24" y="14" width="1" height="1" fill="#77BABD" />
<rect x="25" y="14" width="1" height="1" fill="#74B6B9" />
<rect x="26" y="14" width="1" height="1" fill="#70B2B5" />
<rect x="27" y="14" width="1" height="1" fill="#6DAEB0" />
<rect x="28" y="14" width="1" height="1" fill="#69AAAC" />
<rect x="29" y="14" width="1" height="1" fill="#65A6A8" />
<rect x="2" y="15" width="1" height="1" fill="#66A6A8" />
<rect x="3" y="15" width="1" height="1" fill="#69AAAC" />
<rect x="4" y="15" width="1" height="1" fill="#6DAEB1" />
<rect x="5" y="15" width="1" height="1" fill="#71B2B5" />
<rect x="6" y="15" width="1" height="1" fill="#74B7B9" />
<rect x="7" y="15" width="1" height="1" fill="#78BBBE" />
<rect x="8" y="15" width="1" height="1" fill="#7BBFC2" />
<rect x="9" y="15" width="1" height="1" fill="#7FC3C6" />
<rect x="10" y="15" width="1" height="1" fill="#83C7CB" />
<rect x="11" y="15" width="1" height="1" fill="#86CCCF" />
<rect x="12" y="15" width="1" height="1" fill="#8AD0D3" />
<rect x="13" y="15" width="1" height="1" fill="#8DD4D7" />
<rect x="14" y="15" width="1" height="1" fill="#91D8DC" />
<rect x="15" y="15" width="1" height="1" fill="#94DCDF" />
<rect x="16" y="15" width="1" height="1" fill="#94DCDF" />
<rect x="17" y="15" width="1" height="1" fill="#91D8DC" />
<rect x="18" y="15" width="1" height="1" fill="#8DD4D7" />
<rect x="19" y="15" width="1" height="1" fill="#8AD0D3" />
<rect x="20" y="15" width="1" height="1" fill="#86CCCF" />
<rect x="21" y="15" width="1" height="1" fill="#83C7CB" />
<rect x="22" y="15" width="1" height="1" fill="#7FC3C6" />
<rect x="23" y="15" width="1" height="1" fill="#7BBFC2" />
<rect x="24" y="15" width="1" height="1" fill="#78BBBE" />
<rect x="25" y="15" width="1" height="1" fill="#74B7B9" />
<rect x="26" y="15" width="1" height="1" fill="#71B2B5" />
<rect x="27" y="15" width="1" height="1" fill="#6DAEB1" />
<rect x="28" y="15" width="1" height="1" fill="#69AAAC" />
<rect x="29" y="15" width="1" height="1" fill="#66A6A8" />
<rect x="2" y="16" width="1" height="1" fill="#66A6A8" />
<rect x="3" y="16" width="1" height="1" fill="#69AAAC" />
<rect x="4" y="16" width="1" height="1" fill="#6DAEB1" />
<rect x="5" y="16" width="1" height="1" fill="#71B2B5" />
<rect x="6" y="16" width="1" height="1" fill="#74B7B9" />
<rect x="7" y="16" width="1" height="1" fill="#78BBBE" />
<rect x="8" y="16" width="1" height="1" fill="#7BBFC2" />
<rect x="9" y="16" width="1" height="1" fill="#7FC3C6" />
<rect x="10" y="16" width="1" height="1" fill="#83C7CB" />
<rect x="11" y="16" width="1" height="1" fill="#86CCCF" />
<rect x="12" y="16" width="1" height="1" fill="#8AD0D3" />
<rect x="13" y="16" width="1" height="1" fill="#8DD4D7" />
<rect x="14" y="16" width="1" height="1" fill="#91D8DC" />
<rect x="15" y="16" width="1" height="1" fill="#94DCDF" />
<rect x="16" y="16" width="1" height="1" fill="#94DCDF" />
<rect x="17" y="16" width="1" height="1" fill="#91D8DC" />
<rect x="18" y="16" width="1" height="1" fill="#8DD4D7" />
<rect x="19" y="16" width="1" height="1" fill="#8AD0D3" />
<rect x="20" y="16" width="1" height="1" fill="#86CCCF" />
<rect x="21" y="16" width="1" height="1" fill="#83C7CB" />
<rect x="22" y="16" width="1" height="1" fill="#7FC3C6" />
<rect x="23" y="16" width="1" height="1" fill="#7BBFC2" />
<rect x="24" y="16" width="1" height="1" fill="#78BBBE" />
<rect x="25" y="16" width="1" height="1" fill="#74B7B9" />
<rect x="26" y="16" width="1" height="1" fill="#71B2B5" />
<rect x="27" y="16" width="1" height="1" fill="#6DAEB1" />
<rect x="28" y="16" width="1" height="1" fill="#69AAAC" />
<rect x="29" y="16" width="1" height="1" fill="#66A6A8" />
<rect x="2" y="17" width="1" height="1" fill="#65A6A8" />
<rect x="3" y="17" width="1" height="1" fill="#69AAAC" />
<rect x="4" y="17" width="1" height="1" fill="#6DAEB0" />
<rect x="5" y="17" width="1" height="1" fill="#70B2B5" />
<rect x="6" y="17" width="1" height="1" fill="#74B6B9" />
<rect x="7" y="17" width="1" height="1" fill="#77BABD" />
<rect x="8" y="17" width="1" height="1" fill="#7BBEC1" />
<rect x="9" y="17" width="1" height="1" fill="#7EC3C6" />
<rect x="10" y="17" width="1" height="1" fill="#82C7CA" />
<rect x="11" y="17" width="1" height="1" fill="#85CBCE" />
<rect x="12" y="17" width="1" height="1" fill="#89CFD2" />
<rect x="13" y="17" width="1" height="1" fill="#8CD2D6" />
<rect x="14" y="17" width="1" height="1" fill="#8FD6D9" />
<rect x="15" y="17" width="1" height="1" fill="#91D8DC" />
<rect x="16" y="17" width="1" height="1" fill="#91D8DC" />
<rect x="17" y="17" width="1" height="1" fill="#8FD6D9" />
<rect x="18" y="17" width="1" height="1" fill="#8CD2D6" />
<rect x="19" y="17" width="1" height="1" fill="#89CFD2" />
<rect x="20" y="17" width="1" height="1" fill="#85CBCE" />
<rect x="21" y="17" width="1" height="1" fill="#82C7CA" />
<rect x="22" y="17" width="1" height="1" fill="#7EC3C6" />
<rect x="23" y="17" width="1" height="1" fill="#7BBEC1" />
<rect x="24" y="17" width="1" height="1" fill="#77BABD" />
<rect x="25" y="17" width="1" height="1" fill="#74B6B9" />
<rect x="26" y="17" width="1" height="1" fill="#70B2B5" />
<rect x="27" y="17" width="1" height="1" fill="#6DAEB0" />
<rect x="28" y="17" width="1" height="1" fill="#69AAAC" />
<rect x="29" y="17" width="1" height="1" fill="#65A6A8" />
<rect x="2" y="18" width="1" height="1" fill="#65A5A7" />
<rect x="3" y="18" width="1" height="1" fill="#68A9AB" />
<rect x="4" y="18" width="1" height="1" fill="#6CADB0" />
<rect x="5" y="18" width="1" height="1" fill="#70B1B4" />
<rect x="6" y="18" width="1" height="1" fill="#73B5B8" />
<rect x="7" y="18" width="1" height="1" fill="#76B9BC" />
<rect x="8" y="18" width="1" height="1" fill="#7ABDC0" />
<rect x="9" y="18" width="1" height="1" fill="#7DC1C4" />
<rect x="10" y="18" width="1" height="1" fill="#81C5C8" />
<rect x="11" y="18" width="1" height="1" fill="#84C9CC" />
<rect x="12" y="18" width="1" height="1" fill="#87CCD0" />
<rect x="13" y="18" width="1" height="1" fill="#8AD0D3" />
<rect x="14" y="18" width="1" height="1" fill="#8CD2D6" />
<rect x="15" y="18" width="1" height="1" fill="#8DD4D7" />
<rect x="16" y="18" width="1" height="1" fill="#8DD4D7" />
<rect x="17" y="18" width="1" height="1" fill="#8CD2D6" />
<rect x="18" y="18" width="1" height="1" fill="#8AD0D3" />
<rect x="19" y="18" width="1" height="1" fill="#87CCD0" />
<rect x="20" y="18" width="1" height="1" fill="#84C9CC" />
<rect x="21" y="18" width="1" height="1" fill="#81C5C8" />
<rect x="22" y="18" width="1" height="1" fill="#7DC1C4" />
<rect x="23" y="18" width="1" height="1" fill="#7ABDC0" />
<rect x="24" y="18" width="1" height="1" fill="#76B9BC" />
<rect x="25" y="18" width="1" height="1" fill="#73B5B8" />
<rect x="26" y="18" width="1" height="1" fill="#70B1B4" />
<rect x="27" y="18" width="1" height="1" fill="#6CADB0" />
<rect x="28" y="18" width="1" height="1" fill="#68A9AB" />
<rect x="29" y="18" width="1" height="1" fill="#65A5A7" />
<rect x="2" y="19" width="1" height="1" fill="#64A4A6" />
<rect x="3" y="19" width="1" height="1" fill="#68A8AA" />
<rect x="4" y="19" width="1" height="1" fill="#6BACAF" />
<rect x="5" y="19" width="1" height="1" fill="#6FB0B3" />
<rect x="6" y="19" width="1" height="1" fill="#72B4B7" />
<rect x="7" y="19" width="1" height="1" fill="#75B8BB" />
<rect x="8" y="19" width="1" height="1" fill="#79BCBF" />
<rect x="9" y="19" width="1" height="1" fill="#7CC0C3" />
<rect x="10" y="19" width="1" height="1" fill="#7FC3C6" />
<rect x="11" y="19" width="1" height="1" fill="#82C7CA" />
<rect x="12" y="19" width="1" height="1" fill="#85CACD" />
<rect x="13" y="19" width="1" height="1" fill="#87CCD0" />
<rect x="14" y="19" width="1" height="1" fill="#89CFD2" />
<rect x="15" y="19" width="1" height="1" fill="#8AD0D3" />
<rect x="16" y="19" width="1" height="1" fill="#8AD0D3" />
<rect x="17" y="19" width="1" height="1" fill="#89CFD2" />
<rect x="18" y="19" width="1" height="1" fill="#87CCD0" />
<rect x="19" y="19" width="1" height="1" fill="#85CACD" />
<rect x="20" y="19" width="1" height="1" fill="#82C7CA" />
<rect x="21" y="19" width="1" height="1" fill="#7FC3C6" />
<rect x="22" y="19" width="1" height="1" fill="#7CC0C3" />
<rect x="23" y="19" width="1" height="1" fill="#79BCBF" />
<rect x="24" y="19" width="1" height="1" fill="#75B8BB" />
<rect x="25" y="19" width="1" height="1" fill="#72B4B7" />
<rect x="26" y="19" width="1" height="1" fill="#6FB0B3" />
<rect x="27" y="19" width="1" height="1" fill="#6BACAF" />
<rect x="28" y="19" width="1" height="1" fill="#68A8AA" />
<rect x="29" y="19" width="1" height="1" fill="#64A4A6" />
<rect x="2" y="20" width="1" height="1" fill="#63A3A5" />
<rect x="3" y="20" width="1" height="1" fill="#67A7A9" />
<rect x="4" y="20" width="1" height="1" fill="#6AABAD" />
<rect x="5" y="20" width="1" height="1" fill="#6DAFB1" />
<rect x="6" y="20" width="1" height="1" fill="#71B2B5" />
<rect x="7" y="20" width="1" height="1" fill="#74B6B9" />
<rect x="8" y="20" width="1" height="1" fill="#77BABD" />
<rect x="9" y="20" width="1" height="1" fill="#7ABDC0" />
<rect x="10" y="20" width="1" height="1" fill="#7DC1C4" />
<rect x="11" y="20" width="1" height="1" fill="#80C4C7" />
<rect x="12" y="20" width="1" height="1" fill="#82C7CA" />
<rect x="13" y="20" width="1" height="1" fill="#84C9CC" />
<rect x="14" y="20" width="1" height="1" fill="#85CBCE" />
<rect x="15" y="20" width="1" height="1" fill="#86CCCF" />
<rect x="16" y="20" width="1" height="1" fill="#86CCCF" />
<rect x="17" y="20" width="1" height="1" fill="#85CBCE" />
<rect x="18" y="20" width="1" height="1" fill="#84C9CC" />
<rect x="19" y="20" width="1" height="1" fill="#82C7CA" />
<rect x="20" y="20" width="1" height="1" fill="#80C4C7" />
<rect x="21" y="20" width="1" height="1" fill="#7DC1C4" />
<rect x="22" y="20" width="1" height="1" fill="#7ABDC0" />
<rect x="23" y="20" width="1" height="1" fill="#77BABD" />
<rect x="24" y="20" width="1" height="1" fill="#74B6B9" />
<rect x="25" y="20" width="1" height="1" fill="#71B2B5" />
<rect x="26" y="20" width="1" height="1" fill="#6DAFB1" />
<rect x="27" y="20" width="1" height="1" fill="#6AABAD" />
<rect x="28" y="20" width="1" height="1" fill="#67A7A9" />
<rect x="29" y="20" width="1" height="1" fill="#63A3A5" />
<rect x="2" y="21" width="1" height="1" fill="#62A1A3" />
<rect x="3" y="21" width="1" height="1" fill="#65A5A7" />
<rect x="4" y="21" width="1" height="1" fill="#68A9AB" />
<rect x="5" y="21" width="1" height="1" fill="#6CADAF" />
<rect x="6" y="21" width="1" height="1" fill="#6FB0B3" />
<rect x="7" y="21" width="1" height="1" fill="#72B4B7" />
<rect x="8" y="21" width="1" height="1" fill="#75B7BA" />
<rect x="9" y="21" width="1" height="1" fill="#78BBBE" />
<rect x="10" y="21" width="1" height="1" fill="#7ABEC1" />
<rect x="11" y="21" width="1" height="1" fill="#7DC1C4" />
<rect x="12" y="21" width="1" height="1" fill="#7FC3C6" />
<rect x="13" y="21" width="1" height="1" fill="#81C5C8" />
<rect x="14" y="21" width="1" height="1" fill="#82C7CA" />
<rect x="15" y="21" width="1" height="1" fill="#83C7CB" />
<rect x="16" y="21" width="1" height="1" fill="#83C7CB" />
<rect x="17" y="21" width="1" height="1" fill="#82C7CA" />
<rect x="18" y="21" width="1" height="1" fill="#81C5C8" />
<rect x="19" y="21" width="1" height="1" fill="#7FC3C6" />
<rect x="20" y="21" width="1" height="1" fill="#7DC1C4" />
<rect x="21" y="21" width="1" height="1" fill="#7ABEC1" />
<rect x="22" y="21" width="1" height="1" fill="#78BBBE" />
<rect x="23" y="21" width="1" height="1" fill="#75B7BA" />
<rect x="24" y="21" width="1" height="1" fill="#72B4B7" />
<rect x="25" y="21" width="1" height="1" fill="#6FB0B3" />
<rect x="26" y="21" width="1" height="1" fill="#6CADAF" />
<rect x="27" y="21" width="1" height="1" fill="#68A9AB" />
<rect x="28" y="21" width="1" height="1" fill="#65A5A7" />
<rect x="29" y="21" width="1" height="1" fill="#62A1A3" />
<rect x="2" y="22" width="1" height="1" fill="#60A0A2" />
<rect x="3" y="22" width="1" height="1" fill="#64A3A6" />
<rect x="4" y="22" width="1" height="1" fill="#67A7A9" />
<rect x="5" y="22" width="1" height="1" fill="#6AABAD" />
<rect x="6" y="22" width="1" height="1" fill="#6DAEB1" />
<rect x="7" y="22" width="1" height="1" fill="#70B2B4" />
<rect x="8" y="22" width="1" height="1" fill="#73B5B8" />
<rect x="9" y="22" width="1" height="1" fill="#75B8BB" />
<rect x="10" y="22" width="1" height="1" fill="#78BBBE" />
<rect x="11" y="22" width="1" height="1" fill="#7ABDC0" />
<rect x="12" y="22" width="1" height="1" fill="#7CC0C3" />
<rect x="13" y="22" width="1" height="1" fill="#7DC1C4" />
<rect x="14" y="22" width="1" height="1" fill="#7EC3C6" />
<rect x="15" y="22" width="1" height="1" fill="#7FC3C6" />
<rect x="16" y="22" width="1" height="1" fill="#7FC3C6" />
<rect x="17" y="22" width="1" height="1" fill="#7EC3C6" />
<rect x="18" y="22" width="1" height="1" fill="#7DC1C4" />
<rect x="19" y="22" width="1" height="1" fill="#7CC0C3" />
<rect x="20" y="22" width="1" height="1" fill="#7ABDC0" />
<rect x="21" y="22" width="1" height="1" fill="#78BBBE" />
<rect x="22" y="22" width="1" height="1" fill="#75B8BB" />
<rect x="23" y="22" width="1" height="1" fill="#73B5B8" />
<rect x="24" y="22" width="1" height="1" fill="#70B2B4" />
<rect x="25" y="22" width="1" height="1" fill="#6DAEB1" />
<rect x="26" y="22" width="1" height="1" fill="#6AABAD" />
<rect x="27" y="22" width="1" height="1" fill="#67A7A9" />
<rect x="28" y="22" width="1" height="1" fill="#64A3A6" />
<rect x="29" y="22" width="1" height="1" fill="#60A0A2" />
<rect x="2" y="23" width="1" height="1" fill="#5F9EA0" />
<rect x="3" y="23" width="1" height="1" fill="#62A1A3" />
<rect x="4" y="23" width="1" height="1" fill="#65A5A7" />
<rect x="5" y="23" width="1" height="1" fill="#68A8AB" />
<rect x="6" y="23" width="1" height="1" fill="#6BACAE" />
<rect x="7" y="23" width="1" height="1" fill="#6EAFB2" />
<rect x="8" y="23" width="1" height="1" fill="#70B2B5" />
<rect x="9" y="23" width="1" height="1" fill="#73B5B8" />
<rect x="10" y="23" width="1" height="1" fill="#75B7BA" />
<rect x="11" y="23" width="1" height="1" fill="#77BABD" />
<rect x="12" y="23" width="1" height="1" fill="#79BCBF" />
<rect x="13" y="23" width="1" height="1" fill="#7ABDC0" />
<rect x="14" y="23" width="1" height="1" fill="#7BBEC1" />
<rect x="15" y="23" width="1" height="1" fill="#7BBFC2" />
<rect x="16" y="23" width="1" height="1" fill="#7BBFC2" />
<rect x="17" y="23" width="1" height="1" fill="#7BBEC1" />
<rect x="18" y="23" width="1" height="1" fill="#7ABDC0" />
<rect x="19" y="23" width="1" height="1" fill="#79BCBF" />
<rect x="20" y="23" width="1" height="1" fill="#77BABD" />
<rect x="21" y="23" width="1" height="1" fill="#75B7BA" />
<rect x="22" y="23" width="1" height="1" fill="#73B5B8" />
<rect x="23" y="23" width="1" height="1" fill="#70B2B5" />
<rect x="24" y="23" width="1" height="1" fill="#6EAFB2" />
<rect x="25" y="23" width="1" height="1" fill="#6BACAE" />
<rect x="26" y="23" width="1" height="1" fill="#68A8AB" />
<rect x="27" y="23" width="1" height="1" fill="#65A5A7" />
<rect x="28" y="23" width="1" height="1" fill="#62A1A3" />
<rect x="29" y="23" width="1" height="1" fill="#5F9EA0" />
<rect x="2" y="24" width="1" height="1" fill="#5F9EA0" />
<rect x="3" y="24" width="1" height="1" fill="#609FA1" />
<rect x="4" y="24" width="1" height="1" fill="#63A3A5" />
<rect x="5" y="24" width="1" height="1" fill="#66A6A8" />
<rect x="6" y="24" width="1" height="1" fill="#68A9AB" />
<rect x="7" y="24" width="1" height="1" fill="#6BACAF" />
<rect x="8" y="24" width="1" height="1" fill="#6EAFB2" />
<rect x="9" y="24" width="1" height="1" fill="#70B2B4" />
<rect x="10" y="24" width="1" height="1" fill="#72B4B7" />
<rect x="11" y="24" width="1" height="1" fill="#74B6B9" />
<rect x="12" y="24" width="1" height="1" fill="#75B8BB" />
<rect x="13" y="24" width="1" height="1" fill="#76B9BC" />
<rect x="14" y="24" width="1" height="1" fill="#77BABD" />
<rect x="15" y="24" width="1" height="1" fill="#78BBBE" />
<rect x="16" y="24" width="1" height="1" fill="#78BBBE" />
<rect x="17" y="24" width="1" height="1" fill="#77BABD" />
<rect x="18" y="24" width="1" height="1" fill="#76B9BC" />
<rect x="19" y="24" width="1" height="1" fill="#75B8BB" />
<rect x="20" y="24" width="1" height="1" fill="#74B6B9" />
<rect x="21" y="24" width="1" height="1" fill="#72B4B7" />
<rect x="22" y="24" width="1" height="1" fill="#70B2B4" />
<rect x="23" y="24" width="1" height="1" fill="#6EAFB2" />
<rect x="24" y="24" width="1" height="1" fill="#6BACAF" />
<rect x="25" y="24" width="1" height="1" fill="#68A9AB" />
<rect x="26" y="24" width="1" height="1" fill="#66A6A8" />
<rect x="27" y="24" width="1" height="1" fill="#63A3A5" />
<rect x="28" y="24" width="1" height="1" fill="#609FA1" />
<rect x="29" y="24" width="1" height="1" fill="#5F9EA0" />
<rect x="2" y="25" width="1" height="1" fill="#5F9EA0" />
<rect x="3" y="25" width="1" height="1" fill="#5F9EA0" />
<rect x="4" y="25" width="1" height="1" fill="#61A0A2" />
<rect x="5" y="25" width="1" height="1" fill="#63A3A5" />
<rect x="6" y="25" width="1" height="1" fill="#66A6A8" />
<rect x="7" y="25" width="1" height="1" fill="#68A9AB" />
<rect x="8" y="25" width="1" height="1" fill="#6BACAE" />
<rect x="9" y="25" width="1" height="1" fill="#6DAEB1" />
<rect x="10" y="25" width="1" height="1" fill="#6FB0B3" />
<rect x="11" y="25" width="1" height="1" fill="#71B2B5" />
<rect x="12" y="25" width="1" height="1" fill="#72B4B7" />
<rect x="13" y="25" width="1" height="1" fill="#73B5B8" />
<rect x="14" y="25" width="1" height="1" fill="#74B6B9" />
<rect x="15" y="25" width="1" height="1" fill="#74B7B9" />
<rect x="16" y="25" width="1" height="1" fill="#74B7B9" />
<rect x="17" y="25" width="1" height="1" fill="#74B6B9" />
<rect x="18" y="25" width="1" height="1" fill="#73B5B8" />
<rect x="19" y="25" width="1" height="1" fill="#72B4B7" />
<rect x="20" y="25" width="1" height="1" fill="#71B2B5" />
<rect x="21" y="25" width="1" height="1" fill="#6FB0B3" />
<rect x="22" y="25" width="1" height="1" fill="#6DAEB1" />
<rect x="23" y="25" width="1" height="1" fill="#6BACAE" />
<rect x="24" y="25" width="1" height="1" fill="#68A9AB" />
<rect x="25" y="25" width="1" height="1" fill="#66A6A8" />
<rect x="26" y="25" width="1" height="1" fill="#63A3A5" />
<rect x="27" y="25" width="1" height="1" fill="#61A0A2" />
<rect x="28" y="25" width="1" height="1" fill="#5F9EA0" />
<rect x="29" y="25" width="1" height="1" fill="#5F9EA0" />
<rect x="2" y="26" width="1" height="1" fill="#5F9EA0" />
<rect x="3" y="26" width="1" height="1" fill="#5F9EA0" />
<rect x="4" y="26" width="1" height="1" fill="#5F9EA0" />
<rect x="5" y="26" width="1" height="1" fill="#61A0A2" />
<rect x="6" y="26" width="1" height="1" fill="#63A3A5" />
<rect x="7" y="26" width="1" height="1" fill="#66A6A8" />
<rect x="8" y="26" width="1" height="1" fill="#68A8AB" />
<rect x="9" y="26" width="1" height="1" fill="#6AABAD" />
<rect x="10" y="26" width="1" height="1" fill="#6CADAF" />
<rect x="11" y="26" width="1" height="1" fill="#6DAFB1" />
<rect x="12" y="26" width="1" height="1" fill="#6FB0B3" />
<rect x="13" y="26" width="1" height="1" fill="#70B1B4" />
<rect x="14" y="26" width="1" height="1" fill="#70B2B5" />
<rect x="15" y="26" width="1" height="1" fill="#71B2B5" />
<rect x="16" y="26" width="1" height="1" fill="#71B2B5" />
<rect x="17" y="26" width="1" height="1" fill="#70B2B5" />
<rect x="18" y="26" width="1" height="1" fill="#70B1B4" />
<rect x="19" y="26" width="1" height="1" fill="#6FB0B3" />
<rect x="20" y="26" width="1" height="1" fill="#6DAFB1" />
<rect x="21" y="26" width="1" height="1" fill="#6CADAF" />
<rect x="22" y="26" width="1" height="1" fill="#6AABAD" />
<rect x="23" y="26" width="1" height="1" fill="#68A8AB" />
<rect x="24" y="26" width="1" height="1" fill="#66A6A8" />
<rect x="25" y="26" width="1" height="1" fill="#63A3A5" />
<rect x="26" y="26" width="1" height="1" fill="#61A0A2" />
<rect x="27" y="26" width="1" height="1" fill="#5F9EA0" />
<rect x="28" y="26" width="1" height="1" fill="#5F9EA0" />
<rect x="29" y="26" width="1" height="1" fill="#5F9EA0" />
<rect x="3" y="27" width="1" height="1" fill="#5F9EA0" />
<rect x="4" y="27" width="1" height="1" fill="#5F9EA0" />
<rect x="5" y="27" width="1" height="1" fill="#5F9EA0" />
<rect x="6" y="27" width="1" height="1" fill="#61A0A2" />
<rect x="7" y="27" width="1" height="1" fill="#63A3A5" />
<rect x="8" y="27" width="1" height="1" fill="#65A5A7" />
<rect x="9" y="27" width="1" height="1" fill="#67A7A9" />
<rect x="10" y="27" width="1" height="1" fill="#68A9AB" />
<rect x="11" y="27" width="1" height="1" fill="#6AABAD" />
<rect x="12" y="27" width="1" height="1" fill="#6BACAF" />
<rect x="13" y="27" width="1" height="1" fill="#6CADB0" />
<rect x="14" y="27" width="1" height="1" fill="#6DAEB0" />
<rect x="15" y="27" width="1" height="1" fill="#6DAEB1" />
<rect x="16" y="27" width="1" height="1" fill="#6DAEB1" />
<rect x="17" y="27" width="1" height="1" fill="#6DAEB0" />
<rect x="18" y="27" width="1" height="1" fill="#6CADB0" />
<rect x="19" y="27" width="1" height="1" fill="#6BACAF" />
<rect x="20" y="27" width="1" height="1" fill="#6AABAD" />
<rect x="21" y="27" width="1" height="1" fill="#68A9AB" />
<rect x="22" y="27" width="1" height="1" fill="#67A7A9" />
<rect x="23" y="27" width="1" height="1" fill="#65A5A7" />
<rect x="24" y="27" width="1" height="1" fill="#63A3A5" />
<rect x="25" y="27" width="1" height="1" fill="#61A0A2" />
<rect x="26" y="27" width="1" height="1" fill="#5F9EA0" />
<rect x="27" y="27" width="1" height="1" fill="#5F9EA0" />
<rect x="28" y="27" width="1" height="1" fill="#5F9EA0" />
<rect x="4" y="28" width="1" height="1" fill="#5F9EA0" />
<rect x="5" y="28" width="1" height="1" fill="#5F9EA0" />
<rect x="6" y="28" width="1" height="1" fill="#5F9EA0" />
<rect x="7" y="28" width="1" height="1" fill="#609FA1" />
<rect x="8" y="28" width="1" height="1" fill="#62A1A3" />
<rect x="9" y="28" width="1" height="1" fill="#64A3A6" />
<rect x="10" y="28" width="1" height="1" fill="#65A5A7" />
<rect x="11" y="28" width="1" height="1" fill="#67A7A9" />
<rect x="12" y="28" width="1" height="1" fill="#68A8AA" />
<rect x="13" y="28" width="1" height="1" fill="#68A9AB" />
<rect x="14" y="28" width="1" height="1" fill="#69AAAC" />
<rect x="15" y="28" width="1" height="1" fill="#69AAAC" />
<rect x="16" y="28" width="1" height="1" fill="#69AAAC" />
<rect x="17" y="28" width="1" height="1" fill="#69AAAC" />
<rect x="18" y="28" width="1" height="1" fill="#68A9AB" />
<rect x="19" y="28" width="1" height="1" fill="#68A8AA" />
<rect x="20" y="28" width="1" height="1" fill="#67A7A9" />
<rect x="21" y="28" width="1" height="1" fill="#65A5A7" />
<rect x="22" y="28" width="1" height="1" fill="#64A3A6" />
<rect x="23" y="28" width="1" height="1" fill="#62A1A3" />
<rect x="24" y="28" width="1" height="1" fill="#609FA1" />
<rect x="25" y="28" width="1" height="1" fill="#5F9EA0" />
<rect x="26" y="28" width="1" height="1" fill="#5F9EA0" />
<rect x="27" y="28" width="1" height="1" fill="#5F9EA0" />
<rect x="5" y="29" width="1" height="1" fill="#5F9EA0" />
<rect x="6" y="29" width="1" height="1" fill="#5F9EA0" />
<rect x="7" y="29" width="1" height="1" fill="#5F9EA0" />
<rect x="8" y="29" width="1" height="1" fill="#5F9EA0" />
<rect x="9" y="29" width="1" height="1" fill="#60A0A2" />
<rect x="10" y="29" width="1" height="1" fill="#62A1A3" />
<rect x="11" y="29" width="1" height="1" fill="#63A3A5" />
<rect x="12" y="29" width="1" height="1" fill="#64A4A6" />
<rect x="13" y="29" width="1" height="1" fill="#65A5A7" />
<rect x="14" y="29" width="1" height="1" fill="#65A6A8" />
<rect x="15" y="29" width="1" height="1" fill="#66A6A8" />
<rect x="16" y="29" width="1" height="1" fill="#66A6A8" />
<rect x="17" y="29" width="1" height="1" fill="#65A6A8" />
<rect x="18" y="29" width="1" height="1" fill="#65A5A7" />
<rect x="19" y="29" width="1" height="1" fill="#64A4A6" />
<rect x="20" y="29" width="1" height="1" fill="#63A3A5" />
<rect x="21" y="29" width="1" height="1" fill="#62A1A3" />
<rect x="22" y="29" width="1" height="1" fill="#60A0A2" />
<rect x="23" y="29" width="1" height="1" fill="#5F9EA0" />
<rect x="24" y="29" width="1" height="1" fill="#5F9EA0" />
<rect x="25" y="29" width="1" height="1" fill="#5F9EA0" />
<rect x="26" y="29" width="1" height="1" fill="#5F9EA0" />
</svg>